# xmcd
#
# Track frame offsets:
#	150
#	16642
#	37669
#	61656
#	77751
#	97521
#	120405
#	132317
#	143679
#	176494
#	198536
#	208458
#	217606
#
# Disc length: 3130 seconds
#
# Revision: 1
# Processed by: cddbd v1.4PL0 Copyright (c) Steve Scherf et al.
# Submitted via: audiograbber 1.81.00
#
DISCID=9b0c380d
DTITLE=Phil Keaggy - Zion
DYEAR=2000
DGENRE=Christian Rock
TTITLE0=Whatever Life Demands
TTITLE1=The Dawn Is Near
TTITLE2=March Of The Clouds
TTITLE3=Yet Will I Trust
TTITLE4=Prayer
TTITLE5=Z' Blues
TTITLE6=Vibro
TTITLE7=Zion (1)
TTITLE8=Watt Ever
TTITLE9=Blue Ridge Shuffle
TTITLE10=Zion (2)
TTITLE11=Like An Island
TTITLE12=His Master's Vox
EXTD=
EXTT0=
EXTT1=
EXTT2=
EXTT3=
EXTT4=
EXTT5=
EXTT6=
EXTT7=
EXTT8=
EXTT9=
EXTT10=
EXTT11=
EXTT12=
PLAYORDER=
